ffmpeg started on 2025-06-06 at 18:41:08
Report written to "D:\Convert\FFMetrics\reports\ssim_report-6.txt"
Log level: 32
Command line:
ffmpeg -hide_banner -nostdin -i "G:\\\xc0\xed\xe8\xec\xe5\\\xce\xed\xe3\xee\xe8\xed\xe3\xe8\\!_36_\xce\xf1\xe5\xed\xfc_2024\\DreamCast\\\xcf\xf3\xed\xe8\xf0\xf3 - \xec\xe8\xeb\xe0\xff \xf1\xeb\xe8\xe7\xfc\\[DC] Puniru wa Kawaii Slime - 02_Telegram_HEVC.mkv" -i "G:\\\xc0\xed\xe8\xec\xe5\\\xce\xed\xe3\xee\xe8\xed\xe3\xe8\\!_36_\xce\xf1\xe5\xed\xfc_2024\\DreamCast\\\xcf\xf3\xed\xe8\xf0\xf3 - \xec\xe8\xeb\xe0\xff \xf1\xeb\xe8\xe7\xfc\\[DC] Puniru wa Kawaii Slime - 02_Telegram.mp4" -lavfi "[0:v]settb=AVTB,setpts=PTS-STARTPTS,format=pix_fmts=yuv420p10,fps=24000/1001,scale=1920:1080:flags=bicubic[main];[1:v]settb=AVTB,setpts=PTS-STARTPTS,format=pix_fmts=yuv420p,fps=24000/1001,scale=1920:1080:flags=bicubic[ref];[main][ref]ssim=eof_action=endall:stats_file='D\\:/Convert/FFMetrics/logs/ssim_logfile-6.txt'" -f null -
Input #0, matroska,webm, from 'G:\Аниме\Онгоинги\!_36_Осень_2024\DreamCast\Пуниру - милая слизь\[DC] Puniru wa Kawaii Slime - 02_Telegram_HEVC.mkv':
  Metadata:
    COMPATIBLE_BRANDS: isomiso2avc1mp41
    MAJOR_BRAND     : isom
    MINOR_VERSION   : 512
    ENCODER         : Lavf61.7.100
  Duration: 00:23:56.76, start: -0.021000, bitrate: 1438 kb/s
  Stream #0:0: Video: hevc (Main 10), yuv420p10le(tv, bt709, progressive), 1920x1080 [SAR 1:1 DAR 16:9], 23.98 fps, 23.98 tbr, 1k tbn (default)
      Metadata:
        HANDLER_NAME    : VideoHandler
        VENDOR_ID       : [0][0][0][0]
        ENCODER         : Lavc61.19.100 libx265
        BPS             : 1240444
        DURATION        : 00:23:56.601708333
        NUMBER_OF_FRAMES: 34444
        NUMBER_OF_BYTES : 222753010
        _STATISTICS_WRITING_APP: mkvpropedit v66.0.0 ('Josie') 64-bit
        _STATISTICS_WRITING_DATE_UTC: 2025-06-03 11:53:23
        _STATISTICS_TAGS: BPS DURATION NUMBER_OF_FRAMES NUMBER_OF_BYTES
  Stream #0:1: Audio: aac (LC), 48000 Hz, stereo, fltp (default)
      Metadata:
        HANDLER_NAME    : SoundHandler
        VENDOR_ID       : [0][0][0][0]
        ENCODER         : Lavc61.19.100 aac
        BPS             : 193614
        DURATION        : 00:23:56.757000000
        NUMBER_OF_FRAMES: 67349
        NUMBER_OF_BYTES : 34772041
        _STATISTICS_WRITING_APP: mkvpropedit v66.0.0 ('Josie') 64-bit
        _STATISTICS_WRITING_DATE_UTC: 2025-06-03 11:53:23
        _STATISTICS_TAGS: BPS DURATION NUMBER_OF_FRAMES NUMBER_OF_BYTES
Input #1, mov,mp4,m4a,3gp,3g2,mj2, from 'G:\Аниме\Онгоинги\!_36_Осень_2024\DreamCast\Пуниру - милая слизь\[DC] Puniru wa Kawaii Slime - 02_Telegram.mp4':
  Metadata:
    major_brand     : isom
    minor_version   : 512
    compatible_brands: isomiso2avc1mp41
    encoder         : Lavf61.1.100
  Duration: 00:23:56.73, start: 0.000000, bitrate: 3685 kb/s
  Stream #1:0[0x1](und): Video: h264 (High) (avc1 / 0x31637661), yuv420p(tv, bt709, progressive), 1920x1080 [SAR 1:1 DAR 16:9], 3537 kb/s, 23.98 fps, 23.98 tbr, 24k tbn (default)
      Metadata:
        handler_name    : VideoHandler
        vendor_id       : [0][0][0][0]
        encoder         : Lavc61.3.100 h264_qsv
  Stream #1:1[0x2](und): Audio: aac (HE-AACv2) (mp4a / 0x6134706D), 48000 Hz, stereo, fltp, 144 kb/s (default)
      Metadata:
        handler_name    : SoundHandler
        vendor_id       : [0][0][0][0]
Stream mapping:
  Stream #0:0 (hevc) -> settb:default
  Stream #1:0 (h264) -> settb:default
  ssim:default -> Stream #0:0 (wrapped_avframe)
  Stream #0:1 -> #0:1 (aac (native) -> pcm_s16le (native))
Output #0, null, to 'pipe:':
  Metadata:
    COMPATIBLE_BRANDS: isomiso2avc1mp41
    MAJOR_BRAND     : isom
    MINOR_VERSION   : 512
    encoder         : Lavf61.7.100
  Stream #0:0: Video: wrapped_avframe, yuv420p10le(tv, bt709, progressive), 1920x1080 [SAR 1:1 DAR 16:9], q=2-31, 200 kb/s, 23.98 fps, 23.98 tbn
      Metadata:
        encoder         : Lavc61.19.100 wrapped_avframe
  Stream #0:1: Audio: pcm_s16le, 48000 Hz, stereo, s16, 1536 kb/s (default)
      Metadata:
        HANDLER_NAME    : SoundHandler
        VENDOR_ID       : [0][0][0][0]
        _STATISTICS_TAGS: BPS DURATION NUMBER_OF_FRAMES NUMBER_OF_BYTES
        BPS             : 193614
        DURATION        : 00:23:56.757000000
        NUMBER_OF_FRAMES: 67349
        NUMBER_OF_BYTES : 34772041
        _STATISTICS_WRITING_APP: mkvpropedit v66.0.0 ('Josie') 64-bit
        _STATISTICS_WRITING_DATE_UTC: 2025-06-03 11:53:23
        encoder         : Lavc61.19.100 pcm_s16le
frame=  172 fps=0.0 q=-0.0 size=N/A time=00:00:07.17 bitrate=N/A speed=  14x    frame=  434 fps=418 q=-0.0 size=N/A time=00:00:18.10 bitrate=N/A speed=17.4x    frame=  702 fps=454 q=-0.0 size=N/A time=00:00:29.27 bitrate=N/A speed=18.9x    frame=  886 fps=429 q=-0.0 size=N/A time=00:00:36.95 bitrate=N/A speed=17.9x    frame= 1098 fps=426 q=-0.0 size=N/A time=00:00:45.79 bitrate=N/A speed=17.8x    frame= 1282 fps=414 q=-0.0 size=N/A time=00:00:53.47 bitrate=N/A speed=17.3x    frame= 1486 fps=412 q=-0.0 size=N/A time=00:01:01.97 bitrate=N/A speed=17.2x    frame= 1727 fps=418 q=-0.0 size=N/A time=00:01:12.03 bitrate=N/A speed=17.4x    frame= 1929 fps=416 q=-0.0 size=N/A time=00:01:20.45 bitrate=N/A speed=17.3x    frame= 2117 fps=410 q=-0.0 size=N/A time=00:01:28.29 bitrate=N/A speed=17.1x    frame= 2269 fps=400 q=-0.0 size=N/A time=00:01:34.63 bitrate=N/A speed=16.7x    frame= 2455 fps=397 q=-0.0 size=N/A time=00:01:42.39 bitrate=N/A speed=16.5x    frame= 2668 fps=398 q=-0.0 size=N/A time=00:01:51.27 bitrate=N/A speed=16.6x    frame= 2869 fps=397 q=-0.0 size=N/A time=00:01:59.66 bitrate=N/A speed=16.6x    frame= 3054 fps=395 q=-0.0 size=N/A time=00:02:07.37 bitrate=N/A speed=16.5x    frame= 3277 fps=397 q=-0.0 size=N/A time=00:02:16.67 bitrate=N/A speed=16.6x    frame= 3530 fps=403 q=-0.0 size=N/A time=00:02:27.23 bitrate=N/A speed=16.8x    frame= 3808 fps=410 q=-0.0 size=N/A time=00:02:38.82 bitrate=N/A speed=17.1x    frame= 4024 fps=411 q=-0.0 size=N/A time=00:02:47.83 bitrate=N/A speed=17.1x    frame= 4264 fps=413 q=-0.0 size=N/A time=00:02:57.84 bitrate=N/A speed=17.2x    frame= 4513 fps=417 q=-0.0 size=N/A time=00:03:08.22 bitrate=N/A speed=17.4x    frame= 4783 fps=422 q=-0.0 size=N/A time=00:03:19.49 bitrate=N/A speed=17.6x    frame= 5001 fps=422 q=-0.0 size=N/A time=00:03:28.58 bitrate=N/A speed=17.6x    frame= 5291 fps=427 q=-0.0 size=N/A time=00:03:40.67 bitrate=N/A speed=17.8x    frame= 5511 fps=427 q=-0.0 size=N/A time=00:03:49.85 bitrate=N/A speed=17.8x    frame= 5765 fps=430 q=-0.0 size=N/A time=00:04:00.44 bitrate=N/A speed=17.9x    frame= 6008 fps=431 q=-0.0 size=N/A time=00:04:10.58 bitrate=N/A speed=  18x    frame= 6265 fps=434 q=-0.0 size=N/A time=00:04:21.30 bitrate=N/A speed=18.1x    frame= 6541 fps=438 q=-0.0 size=N/A time=00:04:32.81 bitrate=N/A speed=18.2x    frame= 6790 fps=439 q=-0.0 size=N/A time=00:04:43.19 bitrate=N/A speed=18.3x    frame= 7060 fps=442 q=-0.0 size=N/A time=00:04:54.46 bitrate=N/A speed=18.4x    frame= 7310 fps=443 q=-0.0 size=N/A time=00:05:04.88 bitrate=N/A speed=18.5x    frame= 7530 fps=443 q=-0.0 size=N/A time=00:05:14.06 bitrate=N/A speed=18.5x    frame= 7751 fps=442 q=-0.0 size=N/A time=00:05:23.28 bitrate=N/A speed=18.4x    frame= 7981 fps=442 q=-0.0 size=N/A time=00:05:32.87 bitrate=N/A speed=18.4x    frame= 8218 fps=443 q=-0.0 size=N/A time=00:05:42.75 bitrate=N/A speed=18.5x    frame= 8463 fps=443 q=-0.0 size=N/A time=00:05:52.97 bitrate=N/A speed=18.5x    frame= 8724 fps=445 q=-0.0 size=N/A time=00:06:03.86 bitrate=N/A speed=18.6x    frame= 8969 fps=446 q=-0.0 size=N/A time=00:06:14.08 bitrate=N/A speed=18.6x    frame= 9262 fps=449 q=-0.0 size=N/A time=00:06:26.30 bitrate=N/A speed=18.7x    frame= 9525 fps=451 q=-0.0 size=N/A time=00:06:37.27 bitrate=N/A speed=18.8x    frame= 9788 fps=452 q=-0.0 size=N/A time=00:06:48.24 bitrate=N/A speed=18.8x    frame=10034 fps=453 q=-0.0 size=N/A time=00:06:58.50 bitrate=N/A speed=18.9x    frame=10228 fps=451 q=-0.0 size=N/A time=00:07:06.59 bitrate=N/A speed=18.8x    frame=10403 fps=448 q=-0.0 size=N/A time=00:07:13.89 bitrate=N/A speed=18.7x    frame=10642 fps=449 q=-0.0 size=N/A time=00:07:23.86 bitrate=N/A speed=18.7x    frame=10917 fps=450 q=-0.0 size=N/A time=00:07:35.32 bitrate=N/A speed=18.8x    frame=11148 fps=450 q=-0.0 size=N/A time=00:07:44.96 bitrate=N/A speed=18.8x    frame=11348 fps=449 q=-0.0 size=N/A time=00:07:53.30 bitrate=N/A speed=18.7x    frame=11555 fps=448 q=-0.0 size=N/A time=00:08:01.93 bitrate=N/A speed=18.7x    frame=11756 fps=447 q=-0.0 size=N/A time=00:08:10.32 bitrate=N/A speed=18.6x    frame=12032 fps=448 q=-0.0 size=N/A time=00:08:21.83 bitrate=N/A speed=18.7x    frame=12323 fps=451 q=-0.0 size=N/A time=00:08:33.97 bitrate=N/A speed=18.8x    frame=12533 fps=450 q=-0.0 size=N/A time=00:08:42.73 bitrate=N/A speed=18.8x    frame=12741 fps=449 q=-0.0 size=N/A time=00:08:51.40 bitrate=N/A speed=18.7x    frame=12987 fps=449 q=-0.0 size=N/A time=00:09:01.66 bitrate=N/A speed=18.7x    frame=13214 fps=449 q=-0.0 size=N/A time=00:09:11.13 bitrate=N/A speed=18.7x    frame=13491 fps=451 q=-0.0 size=N/A time=00:09:22.68 bitrate=N/A speed=18.8x    frame=13794 fps=453 q=-0.0 size=N/A time=00:09:35.32 bitrate=N/A speed=18.9x    frame=14072 fps=455 q=-0.0 size=N/A time=00:09:46.91 bitrate=N/A speed=  19x    frame=14352 fps=456 q=-0.0 size=N/A time=00:09:58.59 bitrate=N/A speed=  19x    frame=14633 fps=458 q=-0.0 size=N/A time=00:10:10.31 bitrate=N/A speed=19.1x    frame=14911 fps=459 q=-0.0 size=N/A time=00:10:21.91 bitrate=N/A speed=19.1x    frame=15185 fps=460 q=-0.0 size=N/A time=00:10:33.34 bitrate=N/A speed=19.2x    frame=15473 fps=461 q=-0.0 size=N/A time=00:10:45.35 bitrate=N/A speed=19.2x    frame=15763 fps=463 q=-0.0 size=N/A time=00:10:57.44 bitrate=N/A speed=19.3x    frame=16036 fps=464 q=-0.0 size=N/A time=00:11:08.83 bitrate=N/A speed=19.3x    frame=16292 fps=464 q=-0.0 size=N/A time=00:11:19.51 bitrate=N/A speed=19.4x    frame=16551 fps=465 q=-0.0 size=N/A time=00:11:30.31 bitrate=N/A speed=19.4x    frame=16810 fps=465 q=-0.0 size=N/A time=00:11:41.11 bitrate=N/A speed=19.4x    frame=17064 fps=466 q=-0.0 size=N/A time=00:11:51.71 bitrate=N/A speed=19.4x    frame=17293 fps=466 q=-0.0 size=N/A time=00:12:01.26 bitrate=N/A speed=19.4x    frame=17511 fps=465 q=-0.0 size=N/A time=00:12:10.35 bitrate=N/A speed=19.4x    frame=17758 fps=465 q=-0.0 size=N/A time=00:12:20.65 bitrate=N/A speed=19.4x    frame=17949 fps=464 q=-0.0 size=N/A time=00:12:28.62 bitrate=N/A speed=19.3x    frame=18132 fps=463 q=-0.0 size=N/A time=00:12:36.25 bitrate=N/A speed=19.3x    frame=18377 fps=463 q=-0.0 size=N/A time=00:12:46.47 bitrate=N/A speed=19.3x    frame=18630 fps=463 q=-0.0 size=N/A time=00:12:57.02 bitrate=N/A speed=19.3x    frame=18910 fps=464 q=-0.0 size=N/A time=00:13:08.70 bitrate=N/A speed=19.4x    frame=19172 fps=465 q=-0.0 size=N/A time=00:13:19.63 bitrate=N/A speed=19.4x    frame=19468 fps=466 q=-0.0 size=N/A time=00:13:31.97 bitrate=N/A speed=19.4x    frame=19733 fps=467 q=-0.0 size=N/A time=00:13:43.03 bitrate=N/A speed=19.5x    frame=19998 fps=467 q=-0.0 size=N/A time=00:13:54.08 bitrate=N/A speed=19.5x    frame=20276 fps=468 q=-0.0 size=N/A time=00:14:05.67 bitrate=N/A speed=19.5x    frame=20553 fps=469 q=-0.0 size=N/A time=00:14:17.23 bitrate=N/A speed=19.5x    frame=20819 fps=469 q=-0.0 size=N/A time=00:14:28.32 bitrate=N/A speed=19.6x    frame=21099 fps=470 q=-0.0 size=N/A time=00:14:40.00 bitrate=N/A speed=19.6x    frame=21380 fps=471 q=-0.0 size=N/A time=00:14:51.72 bitrate=N/A speed=19.6x    frame=21660 fps=472 q=-0.0 size=N/A time=00:15:03.40 bitrate=N/A speed=19.7x    frame=21954 fps=473 q=-0.0 size=N/A time=00:15:15.66 bitrate=N/A speed=19.7x    frame=22204 fps=473 q=-0.0 size=N/A time=00:15:26.09 bitrate=N/A speed=19.7x    frame=22462 fps=473 q=-0.0 size=N/A time=00:15:36.85 bitrate=N/A speed=19.7x    frame=22707 fps=473 q=-0.0 size=N/A time=00:15:47.07 bitrate=N/A speed=19.7x    frame=22953 fps=473 q=-0.0 size=N/A time=00:15:57.33 bitrate=N/A speed=19.7x    frame=23210 fps=474 q=-0.0 size=N/A time=00:16:08.05 bitrate=N/A speed=19.8x    frame=23501 fps=475 q=-0.0 size=N/A time=00:16:20.18 bitrate=N/A speed=19.8x    frame=23747 fps=475 q=-0.0 size=N/A time=00:16:30.44 bitrate=N/A speed=19.8x    frame=23952 fps=474 q=-0.0 size=N/A time=00:16:38.99 bitrate=N/A speed=19.8x    frame=24217 fps=474 q=-0.0 size=N/A time=00:16:50.05 bitrate=N/A speed=19.8x    frame=24435 fps=474 q=-0.0 size=N/A time=00:16:59.14 bitrate=N/A speed=19.8x    frame=24680 fps=474 q=-0.0 size=N/A time=00:17:09.36 bitrate=N/A speed=19.8x    frame=24891 fps=473 q=-0.0 size=N/A time=00:17:18.16 bitrate=N/A speed=19.7x    frame=25168 fps=474 q=-0.0 size=N/A time=00:17:29.71 bitrate=N/A speed=19.8x    frame=25383 fps=473 q=-0.0 size=N/A time=00:17:38.68 bitrate=N/A speed=19.7x    frame=25588 fps=473 q=-0.0 size=N/A time=00:17:47.23 bitrate=N/A speed=19.7x    frame=25819 fps=472 q=-0.0 size=N/A time=00:17:56.86 bitrate=N/A speed=19.7x    frame=26073 fps=472 q=-0.0 size=N/A time=00:18:07.46 bitrate=N/A speed=19.7x    frame=26245 fps=471 q=-0.0 size=N/A time=00:18:14.63 bitrate=N/A speed=19.6x    frame=26377 fps=469 q=-0.0 size=N/A time=00:18:20.14 bitrate=N/A speed=19.6x    frame=26563 fps=468 q=-0.0 size=N/A time=00:18:27.89 bitrate=N/A speed=19.5x    frame=26862 fps=469 q=-0.0 size=N/A time=00:18:40.36 bitrate=N/A speed=19.6x    frame=27083 fps=469 q=-0.0 size=N/A time=00:18:49.58 bitrate=N/A speed=19.6x    frame=27304 fps=469 q=-0.0 size=N/A time=00:18:58.80 bitrate=N/A speed=19.5x    frame=27589 fps=469 q=-0.0 size=N/A time=00:19:10.69 bitrate=N/A speed=19.6x    frame=27840 fps=469 q=-0.0 size=N/A time=00:19:21.16 bitrate=N/A speed=19.6x    frame=28078 fps=469 q=-0.0 size=N/A time=00:19:31.08 bitrate=N/A speed=19.6x    frame=28297 fps=469 q=-0.0 size=N/A time=00:19:40.22 bitrate=N/A speed=19.6x    frame=28475 fps=468 q=-0.0 size=N/A time=00:19:47.64 bitrate=N/A speed=19.5x    frame=28599 fps=466 q=-0.0 size=N/A time=00:19:52.81 bitrate=N/A speed=19.4x    frame=28735 fps=464 q=-0.0 size=N/A time=00:19:58.48 bitrate=N/A speed=19.4x    frame=28940 fps=464 q=-0.0 size=N/A time=00:20:07.03 bitrate=N/A speed=19.3x    frame=29196 fps=464 q=-0.0 size=N/A time=00:20:17.71 bitrate=N/A speed=19.4x    frame=29430 fps=464 q=-0.0 size=N/A time=00:20:27.47 bitrate=N/A speed=19.3x    frame=29650 fps=464 q=-0.0 size=N/A time=00:20:36.65 bitrate=N/A speed=19.3x    frame=29870 fps=463 q=-0.0 size=N/A time=00:20:45.82 bitrate=N/A speed=19.3x    frame=30022 fps=462 q=-0.0 size=N/A time=00:20:52.16 bitrate=N/A speed=19.3x    frame=30251 fps=462 q=-0.0 size=N/A time=00:21:01.71 bitrate=N/A speed=19.3x    frame=30518 fps=462 q=-0.0 size=N/A time=00:21:12.85 bitrate=N/A speed=19.3x    frame=30750 fps=462 q=-0.0 size=N/A time=00:21:22.53 bitrate=N/A speed=19.3x    frame=30989 fps=462 q=-0.0 size=N/A time=00:21:32.49 bitrate=N/A speed=19.3x    frame=31236 fps=462 q=-0.0 size=N/A time=00:21:42.80 bitrate=N/A speed=19.3x    frame=31463 fps=462 q=-0.0 size=N/A time=00:21:52.26 bitrate=N/A speed=19.3x    frame=31731 fps=463 q=-0.0 size=N/A time=00:22:03.44 bitrate=N/A speed=19.3x    frame=31988 fps=463 q=-0.0 size=N/A time=00:22:14.16 bitrate=N/A speed=19.3x    frame=32189 fps=462 q=-0.0 size=N/A time=00:22:22.54 bitrate=N/A speed=19.3x    frame=32435 fps=462 q=-0.0 size=N/A time=00:22:32.80 bitrate=N/A speed=19.3x    frame=32653 fps=462 q=-0.0 size=N/A time=00:22:41.90 bitrate=N/A speed=19.3x    frame=32854 fps=462 q=-0.0 size=N/A time=00:22:50.28 bitrate=N/A speed=19.3x    frame=33061 fps=461 q=-0.0 size=N/A time=00:22:58.91 bitrate=N/A speed=19.2x    frame=33311 fps=461 q=-0.0 size=N/A time=00:23:09.34 bitrate=N/A speed=19.2x    frame=33493 fps=461 q=-0.0 size=N/A time=00:23:16.93 bitrate=N/A speed=19.2x    frame=33681 fps=460 q=-0.0 size=N/A time=00:23:24.77 bitrate=N/A speed=19.2x    frame=33858 fps=459 q=-0.0 size=N/A time=00:23:32.16 bitrate=N/A speed=19.1x    frame=34060 fps=459 q=-0.0 size=N/A time=00:23:40.58 bitrate=N/A speed=19.1x    frame=34286 fps=458 q=-0.0 size=N/A time=00:23:50.01 bitrate=N/A speed=19.1x    [Parsed_ssim_10 @ 000001a2f23b97c0] SSIM Y:0.994527 (22.617477) U:0.993029 (21.567043) V:0.993010 (21.555513) All:0.994024 (22.236148)
[out#0/null @ 000001a2efaa4440] video:14800KiB audio:269396KiB subtitle:0KiB other streams:0KiB global headers:0KiB muxing overhead: unknown
frame=34444 fps=458 q=-0.0 Lsize=N/A time=00:23:56.60 bitrate=N/A speed=19.1x    
